<?xml version="1.0" standalone="no"?><!DOCTYPE svg PUBLIC "-//W3C//DTD SVG 1.1//EN" "http://www.w3.org/Graphics/SVG/1.1/DTD/svg11.dtd"><svg class="icon" width="128px" height="128.00px" viewBox="0 0 1024 1024" version="1.1" xmlns="http://www.w3.org/2000/svg"><path d="M512 887.771429c-128.914286 0-257.828571-9.142857-284.342857-27.428572l-5.485714-3.657143V554.057143C179.2 541.257143 21.942857 480 9.142857 295.314286l-0.914286-8.228572 7.314286-3.657143c61.257143-34.742857 263.314286-147.2 297.142857-147.2 19.2 0 27.428571 18.285714 37.485715 40.228572 20.114286 42.057143 50.285714 105.142857 160.914285 105.142857s141.714286-63.085714 160.914286-105.142857c10.057143-21.942857 19.2-40.228571 37.485714-40.228572 33.828571 0 236.8 112.457143 297.142857 147.2l7.314286 4.571429-0.914286 8.228571c-12.8 184.685714-170.057143 245.028571-213.028571 258.742858v300.8l-3.657143 3.657142c-26.514286 18.285714-155.428571 28.342857-284.342857 28.342858z m-263.314286-47.542858c66.742857 27.428571 458.971429 27.428571 525.714286 0V533.028571l10.971429-2.742857c7.314286-1.828571 183.771429-42.971429 202.057142-227.657143-120.685714-67.657143-254.171429-136.228571-276.114285-138.971428-3.657143 2.742857-9.142857 15.542857-13.714286 24.685714C677.485714 230.4 640 309.028571 512 309.028571s-165.485714-78.628571-185.6-120.685714c-4.571429-9.142857-10.057143-21.942857-13.714286-24.685714-21.942857 2.742857-155.428571 71.314286-276.114285 138.971428C54.857143 488.228571 236.8 530.285714 238.628571 530.285714l10.971429 2.742857v307.2z" /></svg>