<?xml version="1.0" standalone="no"?><!DOCTYPE svg PUBLIC "-//W3C//DTD SVG 1.1//EN" "http://www.w3.org/Graphics/SVG/1.1/DTD/svg11.dtd"><svg class="icon" width="128px" height="128.00px" viewBox="0 0 1024 1024" version="1.1" xmlns="http://www.w3.org/2000/svg"><path d="M258.3 540.2l-25.8-25.8c-2.7-2.7-5.4-5.5-7.9-8.3l-5.7-6.6c-0.5-0.6-0.9-1.1-1.4-1.7-0.3-0.4-2.2-2.9-0.8-1 1.3 1.7-0.1-0.2-0.3-0.5-0.6-0.8-1.1-1.5-1.7-2.3-7-9.8-13.1-20.2-18.1-31.1-0.6-1.3-1.1-2.6-1.7-3.8-0.8-1.9 0.4 1 0.5 1.1-0.3-0.6-0.5-1.3-0.8-1.9-1.2-3-2.3-6-3.4-9.1-1.9-5.5-3.5-11-4.8-16.6l-1.8-8.1c-0.1-0.7-1.1-9.4-1.6-9.5 0.1 0 0.4 3.5 0.2 1.4-0.1-0.7-0.2-1.4-0.2-2-0.2-1.4-0.3-2.7-0.4-4.1-0.3-3-0.5-5.9-0.6-8.9-0.3-5.9-0.2-11.9 0.1-17.8 0.1-2.7 0.3-5.5 0.6-8.2 0.1-1.4 0.3-2.7 0.4-4.1 0-0.2 0.4-2 0.2-2-0.3 2.3-0.4 2.7-0.2 1.4 0.1-0.5 0.1-0.9 0.2-1.4 1.8-11.6 4.6-23 8.5-34.1 0.9-2.6 1.9-5.2 2.9-7.8 1.3-3.3-1.1 2.4 0.3-0.8 0.7-1.5 1.3-3 2-4.5 2.6-5.5 5.5-10.9 8.6-16.1 3.2-5.3 6.6-10.5 10.2-15.4 0.4-0.6 0.9-1.1 1.3-1.7-0.1 0.2-1.9 2.4-0.6 0.8 0.9-1.1 1.8-2.3 2.7-3.4 2-2.4 4.1-4.8 6.2-7.2 4-4.4 8.1-8.5 12.5-12.5 2.2-2 4.4-3.9 6.6-5.7 1.1-0.9 2.2-1.8 3.4-2.7 0.3-0.2 2.2-1.7 0.5-0.4-1.8 1.3 0.7-0.5 1-0.8 9.9-7.3 20.5-13.6 31.6-18.8 1.3-0.6 2.5-1.2 3.8-1.7 0.6-0.3 1.3-0.6 1.9-0.8-0.1 0.1-3 1.2-1.1 0.5 2.8-1.1 5.6-2.2 8.4-3.2 5.7-2 11.4-3.7 17.2-5.2 5.8-1.4 11.6-2.6 17.5-3.5 3.6-0.6-2.9 0.3 0.7-0.1 1.4-0.2 2.7-0.3 4.1-0.4 3-0.3 5.9-0.5 8.9-0.7 5.9-0.3 11.9-0.3 17.8-0.1 2.7 0.1 5.5 0.3 8.2 0.5 1.4 0.1 2.7 0.3 4.1 0.4 0.7 0.1 1.4 0.2 2 0.2 3.1 0.3-0.6 0.2-0.7-0.1 0.1 0.5 7.9 1.3 8.8 1.5 2.9 0.6 5.8 1.2 8.8 1.9 5.8 1.4 11.6 3.1 17.2 5 2.6 0.9 5.2 1.9 7.8 2.9 1.5 0.6 3.7 1.6 0.9 0.3 1.5 0.7 3 1.3 4.5 2 5.5 2.5 10.9 5.4 16.2 8.4 5.1 3 10.1 6.2 14.9 9.7 0.6 0.4 1.2 0.8 1.7 1.3 0.4 0.3 2.9 2.2 1 0.8-1.7-1.2 1.6 1.3 2.1 1.7 2.4 2 4.8 4 7.2 6.1 10.6 9.6 20.5 20.1 30.6 30.2l3.5 3.5c6.7 6.7 18.9 7.2 25.5 0 6.6-7.2 7.1-18.3 0-25.5-8.8-8.8-17.5-17.6-26.4-26.4-17.7-17.6-38.5-32.4-61.5-42.5-48.5-21.3-104.3-24.5-154.3-6.2-50.2 18.4-93.3 56.2-116.3 105.1-22.4 47.8-26.8 103.3-10.1 153.5 8.7 26.1 22.3 50 40.3 70.9 10.2 11.9 21.8 22.6 32.8 33.6l3.8 3.8c6.7 6.7 18.9 7.2 25.5 0 6.5-7.1 7.1-18.3 0-25.4z" fill="#000000" /><path d="M524.7 299.2l26.3-26.3c3.4-3.4 6.9-6.7 10.6-9.9 2.4-2.1 4.8-4 7.3-6-2.5 1.9-0.2 0.2 0.9-0.7 1.5-1.1 3.1-2.2 4.7-3.3 5.1-3.5 10.3-6.7 15.7-9.7 2.7-1.5 5.4-2.9 8.1-4.2 1.3-0.6 2.5-1.2 3.8-1.8 0.8-0.4 1.7-0.8 2.5-1.2 0.4-0.2 3.3-1.4 1.1-0.5-2.1 0.9 1.8-0.7 2.4-0.9 1.5-0.6 3-1.2 4.6-1.7 2.8-1 5.7-2 8.5-2.9 5.9-1.8 12-3.4 18-4.6 2.9-0.6 5.9-1.1 8.8-1.6 0.2 0 2-0.2 2-0.3 0 0.1-3.5 0.4-1.4 0.2 1.8-0.2 3.6-0.4 5.5-0.6 5.9-0.6 11.9-0.8 17.8-0.8 6.2 0 12.3 0.3 18.5 0.9 1.4 0.1 2.7 0.3 4.1 0.4 0.4 0 2.8 0.4 0.3 0-2.6-0.4 0.4 0.1 1 0.2 2.9 0.5 5.9 1 8.8 1.6 6.1 1.2 12.1 2.8 18 4.6 2.9 0.9 5.7 1.8 8.5 2.9l3.9 1.5c1.3 0.5 5.8 2.4 2.1 0.8 11.4 5 22.4 11 32.6 18.1 1.2 0.8 2.3 1.6 3.5 2.5 1.1 0.8 4.3 3.3 1.5 1.1 2.5 1.9 4.9 3.9 7.3 6 4.6 4 9.1 8.2 13.3 12.7 2.2 2.3 4.3 4.6 6.4 7 0.9 1.1 1.9 2.2 2.8 3.3 0.5 0.6 0.9 1.1 1.4 1.7 0.3 0.4 2.8 3.6 1.3 1.6-1.3-1.7 1.2 1.7 1.6 2.2 0.8 1.2 1.7 2.3 2.5 3.5 1.9 2.7 3.7 5.5 5.4 8.3 3.3 5.4 6.4 11 9.1 16.7 0.6 1.3 1.2 2.5 1.8 3.8 0.3 0.7 2.2 5.2 1.3 3-0.9-2.1 0.7 1.8 0.9 2.4 0.6 1.5 1.2 3 1.7 4.6 4.2 11.7 7.1 23.8 9.1 36.1 0.6 3.6-0.3-2.9 0.1 0.7 0.2 1.4 0.3 2.7 0.4 4.1 0.3 3.2 0.5 6.4 0.7 9.6 0.3 6.2 0.3 12.3 0 18.5-0.2 3-0.4 5.9-0.7 8.9-0.1 1.4-0.3 2.7-0.4 4.1 0 0.4-0.4 2.8 0 0.3 0.4-2.6-0.1 0.5-0.2 1-0.9 6.1-2.2 12.2-3.7 18.2s-3.4 12-5.5 17.8l-1.5 3.9c-0.2 0.6-1.8 4.5-0.9 2.4 0.9-2.2-1 2.3-1.3 3-0.7 1.5-1.4 3-2.1 4.4-2.8 5.7-5.9 11.3-9.2 16.6-1.6 2.6-3.3 5.2-5.1 7.7-0.8 1.2-1.6 2.3-2.5 3.5-0.8 1.1-3.3 4.3-1.1 1.5-4.9 6.2-10.2 12.1-15.7 17.8l-8.4 8.4-45.3 45.3-68.6 68.6-73.9 73.9-62.3 62.3-32.7 32.7-1.5 1.5h25.5l-26.5-26.5-63.6-63.6-77-77-66.6-66.6c-10.7-10.7-21.2-21.9-32.3-32.3l-0.5-0.5c-6.7-6.7-18.9-7.2-25.5 0-6.6 7.2-7.1 18.3 0 25.5l26.5 26.5 63.6 63.6 77 77 66.6 66.6c10.7 10.7 21.2 21.9 32.3 32.3l0.5 0.5c6.9 6.9 18.6 6.9 25.5 0l23.9-23.9 58.6-58.6 74.7-74.7 72.4-72.4 50.7-50.7c15.5-15.5 30.4-31 42.2-49.8 28.6-45.6 37.5-101.6 26.1-154-11.6-53.5-45.7-100.8-91.8-130-45.5-28.7-101.5-37.9-153.9-26.7-25.7 5.5-50.8 16.3-72.4 31.4-16.3 11.3-30 25-43.9 39l-11.9 11.9c-6.7 6.7-7.2 18.9 0 25.5 7.1 6.7 18.2 7.2 25.3 0.1z" fill="#000000" /></svg>