<?xml version="1.0" standalone="no"?><!DOCTYPE svg PUBLIC "-//W3C//DTD SVG 1.1//EN" "http://www.w3.org/Graphics/SVG/1.1/DTD/svg11.dtd"><svg class="icon" width="128px" height="128.00px" viewBox="0 0 1024 1024" version="1.1" xmlns="http://www.w3.org/2000/svg"><path d="M692.7 766.2c-3.6 0-7.4-0.1-11-0.3H344c-3.7 0.2-7.4 0.3-11 0.3-58.6 0-113.7-22.8-155.2-64.3-41.5-41.5-64.3-96.6-64.3-155.2 0-49.8 17.2-98.6 48.3-137.4 28.7-35.7 68.2-61.8 112.1-74 12.4-48.3 40.3-92 79.2-123.8 41.9-34.3 94.9-53.2 149.1-53.2 53.5 0 105.9 18.4 147.5 51.9 38.3 30.8 66.2 73.1 79.4 120C834.2 347.7 912.2 439 912.2 546.6c0 58.6-22.8 113.7-64.3 155.2-41.5 41.6-96.6 64.4-155.2 64.4z m-349.5-30.3h339.5c3.3 0.2 6.6 0.3 9.9 0.3 104.5 0 189.5-85 189.5-189.5 0-95.9-71.7-176.8-166.9-188.1l-10.4-1.2-2.4-10.2c-21.8-93.5-104.2-158.7-200.3-158.7-96.3 0-180.9 68.3-201.1 162.3l-2 9.3-9.3 2.2c-86.1 20.1-146.3 95.9-146.3 184.5 0 104.5 85 189.5 189.5 189.5 3.3 0 6.6-0.1 9.9-0.3l0.4-0.1z" /></svg>