<?xml version="1.0" standalone="no"?><!DOCTYPE svg PUBLIC "-//W3C//DTD SVG 1.1//EN" "http://www.w3.org/Graphics/SVG/1.1/DTD/svg11.dtd"><svg class="icon" width="128px" height="128.00px" viewBox="0 0 1024 1024" version="1.1" xmlns="http://www.w3.org/2000/svg"><path d="M898.073 562.973c-14.464-46.502-41.023-82.948-63.153-107.209 0.233-3.36 0.39-6.709 0.39-10.076 0-25.719-6.758-50.679-20.021-74.35v-0.326c0-169.137-136.223-306.755-303.628-306.755-167.41 0-303.632 137.618-303.632 306.755v1.089c-12.979 23.447-19.575 48.16-19.575 73.58 0 3.063 0.107 6.17 0.327 9.3-22.399 24.4-49.284 61.121-63.862 108.02-27.205 87.683-23.948 191.798 35.696 212.08 19.929 6.73 41.698 2.625 61.279-11.669 0.516 0.792 0.997 1.535 1.529 2.32-33.46 20.412-52.101 48.868-52.101 80.635 0 65.355 76.834 112.734 182.704 112.734 56.177 0 108.234-14.557 141.665-39.334 10.862 0.609 20.552 0.609 31.555 0 33.416 24.79 85.46 39.334 141.63 39.334 105.862 0 182.753-47.38 182.753-112.734 0-31.69-18.606-60.105-51.91-80.507 0.545-0.792 1.027-1.535 1.55-2.321 19.518 14.21 41.16 18.314 61.108 11.535 59.687-20.282 62.936-124.398 35.703-212.116l-0.007 0.015z m-50.061 169.732c-11.847 4.02-25.874-8.619-34.6-19.057-4.734-5.684-11.932-8.699-19.49-7.87-7.396 0.742-13.926 5.166-17.416 11.761a286.939 286.939 0 0 1-27.805 42.625c-4.28 5.505-5.796 12.717-4.04 19.49a22.53 22.53 0 0 0 13.072 14.988c31.23 13.028 49.112 31.868 49.112 51.753 0 37.502-61.873 67.967-137.97 67.967-49.34 0-95.262-13.157-119.812-34.4a22.524 22.524 0 0 0-14.642-5.416c-0.546 0-1.118 0-1.663 0.036-15.429 1.188-27.516 1.14-42.526 0-6.17-0.567-11.847 1.493-16.325 5.378-24.62 21.244-70.52 34.4-119.875 34.4-76.056 0-137.95-30.464-137.95-67.973 0-19.93 17.96-38.852 49.326-51.838 6.446-2.702 11.273-8.209 13.049-14.988a22.368 22.368 0 0 0-4.005-19.497 288.918 288.918 0 0 1-27.735-42.702c-3.49-6.56-10.05-11.012-17.437-11.762a22.36 22.36 0 0 0-19.54 7.869c-8.76 10.531-22.66 23.425-34.725 19.228-22.902-7.785-31.273-79.282-7.318-156.443 13.524-43.67 40.367-77.26 60.515-97.76 4.94-5.046 7.24-12.15 6.121-19.156-0.743-4.73-1.132-9.251-1.132-13.639 0-19.276 5.62-38.25 16.631-56.36 2.406-3.962 3.497-8.576 3.192-13.183-0.107-1.685-0.2-3.412-0.2-5.13 0-144.463 116.118-262 258.852-262 142.762 0 258.865 117.532 258.865 262 0 1.549-0.085 3.056-0.192 4.585-0.282 4.636 0.842 9.248 3.278 13.183 11.26 18.265 16.935 37.409 16.935 56.905 0 4.595-0.39 9.228-1.196 14.162-1.203 7.042 1.067 14.182 6.079 19.305 19.865 20.355 46.438 53.757 59.877 97.11 23.956 77.145 15.582 148.648-7.295 156.427h-0.015z m0 0"  /></svg>