<svg width="42" height="43" viewBox="0 0 42 43" fill="none" xmlns="http://www.w3.org/2000/svg">
<g clip-path="url(#clip0_1409_2)">
<path d="M9.11688 43H12.7419V39.375H9.11688V43ZM9.11688 17.625H12.7419V14H9.11688V17.625ZM16.3669 17.625H19.9919V14H16.3669V17.625ZM0 33.9375H3.625V30.3125H0V33.9375ZM23.6169 39.375H25.375V37.5625H29V43H23.6169V39.375ZM0 26.6875H3.625V23.0625H0V26.6875ZM3.625 37.5625V39.375H5.49187V43H0V37.5625H3.625ZM5.49187 17.625H3.625V19.4375H0V14H5.49187V17.625ZM16.3669 43H19.9919V39.375H16.3669V43ZM25.375 19.4375V17.625H23.6169V14H29V19.4375H25.375ZM25.375 26.6875H29V23.0625H25.375V26.6875ZM25.375 33.9375H29V30.3125H25.375V33.9375Z" fill="url(#paint0_linear_1409_2)"/>
<path d="M41.6315 4.50621C41.7407 4.75301 41.8294 5.04095 41.8976 5.37002C41.9659 5.69909 42 6.04187 42 6.39836C42 6.75485 41.9318 7.11135 41.7953 7.46784C41.6588 7.82433 41.4404 8.16711 41.1402 8.49618C40.8126 8.82525 40.5192 9.11319 40.2598 9.35999C40.0005 9.6068 39.7753 9.82618 39.5842 10.0181C39.3659 10.2375 39.1612 10.4295 38.9701 10.594L31.3134 2.90199C31.6409 2.60034 32.0299 2.23699 32.4803 1.81194C32.9307 1.38689 33.306 1.05097 33.6063 0.804166C33.9884 0.502518 34.3843 0.289993 34.7937 0.166592C35.2031 0.0431905 35.6058 -0.0116546 36.0016 0.0020567C36.3974 0.015768 36.7795 0.0774687 37.148 0.187159C37.5165 0.296849 37.8373 0.42025 38.1102 0.557363C38.6835 0.859011 39.3181 1.38689 40.0142 2.14101C40.7102 2.89513 41.2493 3.68353 41.6315 4.50621ZM9.73543 24.5795C9.89921 24.415 10.2814 24.0242 10.8819 23.4072C11.4824 22.7902 12.2331 22.0292 13.1339 21.1243L16.1228 18.1215L19.4394 14.7897L28.2425 5.94589L35.8992 13.679L27.0961 22.5228L23.8205 25.8546C22.7286 26.9241 21.7459 27.9045 20.8724 28.7957C19.999 29.6869 19.2756 30.4205 18.7024 30.9964C18.1291 31.5722 17.7879 31.9013 17.6787 31.9836C17.4058 32.2304 17.0919 32.4909 16.737 32.7651C16.3822 33.0393 16.0136 33.2587 15.6315 33.4233C15.2493 33.6152 14.6898 33.8483 13.9528 34.1225C13.2157 34.3968 12.4446 34.6641 11.6394 34.9246C10.8341 35.1852 10.0698 35.4114 9.34646 35.6034C8.6231 35.7953 8.08399 35.9187 7.72913 35.9736C6.99213 36.0558 6.50079 35.9461 6.25512 35.6445C6.00945 35.3428 5.94121 34.8355 6.05039 34.1225C6.10499 33.7386 6.23465 33.1833 6.43937 32.4566C6.64409 31.7299 6.86247 30.9758 7.09449 30.1943C7.32651 29.4127 7.55171 28.6929 7.77008 28.0347C7.98845 27.3766 8.16588 26.9241 8.30236 26.6773C8.46614 26.2934 8.65039 25.9438 8.85512 25.6284C9.05984 25.313 9.35328 24.9634 9.73543 24.5795Z" fill="url(#paint1_linear_1409_2)"/>
</g>
<defs>
<linearGradient id="paint0_linear_1409_2" x1="14.5" y1="43" x2="14.5" y2="14" gradientUnits="userSpaceOnUse">
<stop stop-color="#44A4B0"/>
<stop offset="1" stop-color="#6DC6AB"/>
</linearGradient>
<linearGradient id="paint1_linear_1409_2" x1="24" y1="5.29e-09" x2="24" y2="36" gradientUnits="userSpaceOnUse">
<stop stop-color="#44A4B0"/>
<stop offset="1" stop-color="#6DC6AB"/>
</linearGradient>
<clipPath id="clip0_1409_2">
<rect width="42" height="43" fill="white"/>
</clipPath>
</defs>
</svg>
