<svg width="54" height="58" viewBox="0 0 54 58" fill="none" xmlns="http://www.w3.org/2000/svg">
<path d="M46.8235 9.03275C48.1035 9.03275 49.1595 9.24608 49.9915 9.67275C50.8235 10.0994 51.4849 10.6328 51.9755 11.2728C52.4662 11.9128 52.8075 12.6061 52.9995 13.3527C53.1915 14.0994 53.2875 14.7927 53.2875 15.4327C53.2875 15.7314 53.2769 15.9661 53.2555 16.1367C53.2342 16.3074 53.2235 16.4567 53.2235 16.5847V16.9688H48.9995V50.5688C48.9995 51.4221 48.8289 52.2434 48.4875 53.0328C48.1462 53.8221 47.6555 54.5154 47.0155 55.1128C46.3755 55.7101 45.5969 56.1901 44.6795 56.5527C43.7622 56.9154 42.7062 57.0968 41.5115 57.0968H12.9675C11.8582 57.0968 10.8129 56.9261 9.83155 56.5848C8.85021 56.2434 8.00755 55.7634 7.30355 55.1448C6.59955 54.5261 6.04488 53.7794 5.63955 52.9048C5.23421 52.0301 5.03155 51.0381 5.03155 49.9288V16.9688H1.06355C1.02088 16.9261 0.999547 16.8194 0.999547 16.6488C0.95688 16.4354 0.935547 15.7741 0.935547 14.6647C0.935547 14.1101 1.06355 13.4914 1.31955 12.8088C1.57555 12.1261 1.95955 11.4967 2.47155 10.9207C2.98355 10.3447 3.64488 9.86475 4.45555 9.48075C5.26621 9.09675 6.22621 8.90475 7.33555 8.90475H13.0315V5.00075C13.0315 3.89142 13.4155 2.94208 14.1835 2.15275C14.9515 1.36342 15.8902 0.96875 16.9995 0.96875H37.0315C38.5249 0.96875 39.5595 1.36342 40.1355 2.15275C40.7115 2.94208 40.9995 3.89142 40.9995 5.00075V8.96875C41.8955 9.01142 42.8555 9.03275 43.8795 9.03275H46.8235ZM16.9995 9.03275H37.0315V5.00075H16.9995V9.03275ZM15.0155 49.5448C16.3809 49.5448 17.0635 48.6701 17.0635 46.9207V17.2248H13.0955V46.9207C13.0955 47.8167 13.2342 48.4781 13.5115 48.9048C13.7889 49.3314 14.2902 49.5448 15.0155 49.5448ZM27.1115 49.4808C27.8369 49.4808 28.3275 49.2781 28.5835 48.8728C28.8395 48.4674 28.9675 47.8167 28.9675 46.9207V17.2248H24.9995V46.9207C24.9995 48.6274 25.7035 49.4808 27.1115 49.4808ZM39.1435 49.3528C39.9115 49.3528 40.4235 49.1501 40.6795 48.7448C40.9355 48.3394 41.0635 47.6888 41.0635 46.7928V17.2248H37.0315V46.7928C37.0315 48.4994 37.7355 49.3528 39.1435 49.3528Z" fill="url(#paint0_linear_1196_984)"/>
<defs>
<linearGradient id="paint0_linear_1196_984" x1="27.1115" y1="0.96875" x2="27.1115" y2="57.0968" gradientUnits="userSpaceOnUse">
<stop stop-color="#6FB5C2"/>
<stop offset="1" stop-color="#ADDFD0"/>
</linearGradient>
</defs>
</svg>
