<svg width="51" height="44" viewBox="0 0 51 44" fill="none" xmlns="http://www.w3.org/2000/svg">
<g clip-path="url(#clip0_1409_27)">
<path d="M17.2002 38.5H47.4502C49.2835 38.5 50.2002 39.4167 50.2002 41.25C50.2002 43.0833 49.2835 44 47.4502 44H17.2002C15.3669 44 14.4502 43.0833 14.4502 41.25C14.4502 39.4167 15.3669 38.5 17.2002 38.5Z" fill="url(#paint0_linear_1409_27)"/>
<path d="M33.4357 2.51486L46.2892 15.3683C48.8819 17.961 48.8819 20.5537 46.2892 23.1465L34.3691 35.0665C31.7764 37.6592 29.1837 37.6592 26.5909 35.0665L13.7375 22.2131C11.1448 19.6204 11.1448 17.0276 13.7375 14.4349L25.6576 2.51486C28.2503 -0.0778697 30.843 -0.0778697 33.4357 2.51486Z" fill="url(#paint1_linear_1409_27)"/>
<path d="M28.9426 5.50071L42.5551 19.2507L23.0851 38.5007H15.3576L5.59507 28.7382L28.9426 5.50071ZM28.9426 0.000715029C28.2187 -0.00346988 27.5012 0.135268 26.8311 0.408973C26.161 0.682678 25.5515 1.08597 25.0376 1.59571L1.71757 24.7507C1.2062 25.2615 0.800524 25.8681 0.52374 26.5358C0.246957 27.2035 0.104492 27.9192 0.104492 28.642C0.104492 29.3647 0.246957 30.0804 0.52374 30.7481C0.800524 31.4158 1.2062 32.0224 1.71757 32.5332L13.0751 44.0007H25.3401L46.4326 22.9082C46.9439 22.3974 47.3496 21.7908 47.6264 21.1231C47.9032 20.4554 48.0456 19.7397 48.0456 19.017C48.0456 18.2942 47.9032 17.5785 47.6264 16.9108C47.3496 16.2431 46.9439 15.6365 46.4326 15.1257L32.8201 1.51321C31.7756 0.520591 30.3833 -0.0225045 28.9426 0.000715029Z" fill="url(#paint2_linear_1409_27)"/>
</g>
<defs>
<linearGradient id="paint0_linear_1409_27" x1="32.3252" y1="38.5" x2="32.3252" y2="44" gradientUnits="userSpaceOnUse">
<stop stop-color="#44A4B0"/>
<stop offset="1" stop-color="#6DC6AB"/>
</linearGradient>
<linearGradient id="paint1_linear_1409_27" x1="30.0133" y1="0.570311" x2="30.0133" y2="37.0111" gradientUnits="userSpaceOnUse">
<stop stop-color="#44A4B0"/>
<stop offset="1" stop-color="#6DC6AB"/>
</linearGradient>
<linearGradient id="paint2_linear_1409_27" x1="24.0751" y1="-2.06051e-09" x2="24.0751" y2="44.0007" gradientUnits="userSpaceOnUse">
<stop stop-color="#44A4B0"/>
<stop offset="1" stop-color="#6DC6AB"/>
</linearGradient>
<clipPath id="clip0_1409_27">
<rect width="51" height="44" fill="white"/>
</clipPath>
</defs>
</svg>
