<svg width="44" height="44" viewBox="0 0 44 44" fill="none" xmlns="http://www.w3.org/2000/svg">
<g clip-path="url(#clip0_1409_12)">
<path d="M3.75 38H34C35.8333 38 36.75 38.9167 36.75 40.75C36.75 42.5833 35.8333 43.5 34 43.5H3.75C1.91667 43.5 1 42.5833 1 40.75C1 38.9167 1.91667 38 3.75 38Z" fill="url(#paint0_linear_1409_12)"/>
<path d="M43.3704 5.37025C43.5027 5.66437 43.6102 6.00752 43.6929 6.39969C43.7756 6.79186 43.8169 7.20037 43.8169 7.62521C43.8169 8.05006 43.7342 8.47491 43.5688 8.89976C43.4034 9.32461 43.1388 9.73312 42.775 10.1253C42.378 10.5175 42.0224 10.8606 41.7082 11.1547C41.3939 11.4489 41.121 11.7103 40.8895 11.9391C40.6248 12.2005 40.3768 12.4293 40.1452 12.6254L30.8667 3.45843C31.2636 3.09894 31.735 2.66592 32.2808 2.15937C32.8266 1.65282 33.2814 1.25249 33.6453 0.95836C34.1084 0.598873 34.588 0.345598 35.0842 0.198535C35.5804 0.051472 36.0683 -0.0138893 36.5479 0.00245106C37.0276 0.0187914 37.4907 0.0923229 37.9372 0.223045C38.3838 0.353768 38.7724 0.500831 39.1032 0.664234C39.7979 1.02372 40.567 1.65282 41.4105 2.55154C42.254 3.45026 42.9073 4.38983 43.3704 5.37025ZM4.71808 29.2925C4.91655 29.0964 5.37965 28.6307 6.10738 27.8954C6.83511 27.1601 7.74477 26.2532 8.83636 25.1747L12.4585 21.5962L16.4775 17.6255L27.1453 7.08598L36.4239 16.3019L25.756 26.8414L21.7866 30.8121C20.4635 32.0867 19.2726 33.255 18.2141 34.3171C17.1556 35.3793 16.279 36.2535 15.5844 36.9398C14.8897 37.6261 14.4763 38.0182 14.3439 38.1163C14.0132 38.4104 13.6327 38.7209 13.2027 39.0477C12.7727 39.3745 12.3261 39.6359 11.863 39.832C11.3999 40.0608 10.7218 40.3385 9.82872 40.6654C8.93559 40.9922 8.00113 41.3108 7.02531 41.6213C6.04949 41.9317 5.12329 42.2013 4.24671 42.4301C3.37013 42.6589 2.71683 42.8059 2.28681 42.8713C1.39368 42.9693 0.798271 42.8386 0.500564 42.4791C0.202857 42.1196 0.12016 41.5151 0.252474 40.6654C0.318631 40.2078 0.475754 39.546 0.723843 38.68C0.971932 37.814 1.23656 36.9153 1.51773 35.9839C1.7989 35.0525 2.07179 34.1946 2.33642 33.4103C2.60105 32.6259 2.81606 32.0867 2.98145 31.7926C3.17993 31.335 3.40321 30.9183 3.6513 30.5425C3.89938 30.1667 4.25498 29.75 4.71808 29.2925Z" fill="url(#paint1_linear_1409_12)"/>
</g>
<defs>
<linearGradient id="paint0_linear_1409_12" x1="18.875" y1="38" x2="18.875" y2="43.5" gradientUnits="userSpaceOnUse">
<stop stop-color="#44A4B0"/>
<stop offset="1" stop-color="#6DC6AB"/>
</linearGradient>
<linearGradient id="paint1_linear_1409_12" x1="22.0042" y1="5.45e-09" x2="22.0042" y2="42.9028" gradientUnits="userSpaceOnUse">
<stop stop-color="#44A4B0"/>
<stop offset="1" stop-color="#6DC6AB"/>
</linearGradient>
<clipPath id="clip0_1409_12">
<rect width="44" height="44" fill="white"/>
</clipPath>
</defs>
</svg>
